<?xml version="1.0" encoding="UTF-8" standalone="no"?>
<!DOCTYPE svg PUBLIC "-//W3C//DTD SVG 1.1//EN" "http://www.w3.org/Graphics/SVG/1.1/DTD/svg11.dtd">
<svg xmlns="http://www.w3.org/2000/svg" xmlns:xlink="http://www.w3.org/1999/xlink" version="1.1" width="360pt" height="360pt" viewBox="0 0 360 360">
<g enable-background="new">
<g id="Layer-1" data-name="Group">
<clipPath id="cp0">
<path transform="matrix(1,0,0,-1,0,360)" d="M 0 360 L 360 360 L 360 0 L 0 0 Z "/>
</clipPath>
<g clip-path="url(#cp0)">
<path transform="matrix(1,0,0,-1,96.3755,276.3359)" d="M 0 0 L -33.95 0 L -27.342 11.504 C -27.567 12.044 -27.778 12.59 -27.96 13.144 C -28.241 14.004 -28.437 14.852 -28.593 15.688 L -39.449 -3.175 L 1.391 -3.175 C 1.03 -2.552 .694 -1.902 .409 -1.198 C .252 -.81 .127 -.404 0 0 " fill="#b5f7e3"/>
<path transform="matrix(1,0,0,-1,154.7168,116.481)" d="M 0 0 L 28.661 49.643 L 61.05 -6.456 C 61.654 -6.261 62.259 -6.127 62.867 -6.07 C 63.119 -6.049 63.364 -6.038 63.603 -6.038 C 63.913 -6.038 64.213 -6.065 64.51 -6.1 L 28.661 55.992 L -7.306 -6.305 C -6.567 -5.364 -5.779 -4.465 -4.937 -3.627 C -3.434 -2.129 -1.772 -.917 0 0 " fill="#b5f7e3"/>
<path transform="matrix(1,0,0,-1,304.333,276.3359)" d="M 0 0 L -188.576 0 C -188.552 -.826 -188.459 -1.367 -188.375 -1.674 C -188.211 -2.273 -188.064 -2.769 -187.935 -3.175 L 5.499 -3.175 L -18.102 37.702 L -20.069 34.76 Z " fill="#b5f7e3"/>
<path transform="matrix(1,0,0,-1,188.9971,132.1611)" d="M 0 0 C -.279 -.921 -.745 -1.869 -1.396 -2.842 C -2.049 -3.817 -2.769 -4.569 -3.56 -5.098 C -3.323 -5.249 -3.071 -5.325 -2.803 -5.325 C -2.55 -5.325 -2.282 -5.257 -2 -5.122 C -1.42 -4.846 -.939 -4.635 -.557 -4.49 C -.741 -5.084 -1.236 -6.028 -2.043 -7.323 C -2.852 -8.617 -3.804 -9.974 -4.898 -11.391 C -5.995 -12.809 -7.097 -14.135 -8.204 -15.367 C -9.312 -16.601 -10.256 -17.451 -11.04 -17.922 C -11.241 -18.084 -11.5 -18.228 -11.819 -18.347 C -12.138 -18.467 -12.452 -18.543 -12.761 -18.571 C -12.812 -18.576 -12.862 -18.578 -12.912 -18.578 C -13.164 -18.578 -13.397 -18.516 -13.615 -18.39 C -13.875 -18.241 -14.047 -17.978 -14.13 -17.603 C -14.304 -16.912 -14.219 -15.939 -13.875 -14.688 C -13.532 -13.438 -13.038 -12.066 -12.393 -10.57 C -11.749 -9.076 -10.964 -7.549 -10.036 -5.991 C -9.11 -4.434 -8.167 -3.015 -7.207 -1.735 C -6.248 -.458 -5.28 .622 -4.302 1.501 C -3.323 2.379 -2.427 2.899 -1.612 3.061 C -1.437 3.088 -1.274 3.103 -1.124 3.103 C -.477 3.103 -.068 2.846 .103 2.332 C .313 1.697 .278 .919 0 0 M -34.913 -4.206 C -34.683 -3.25 -34.363 -2.229 -33.955 -1.143 C -33.548 -.058 -33.091 .969 -32.587 1.938 C -32.083 2.906 -31.57 3.707 -31.05 4.341 C -30.52 4.923 -30.133 5.213 -29.891 5.213 C -29.842 5.213 -29.798 5.201 -29.761 5.177 C -29.542 5.035 -29.443 4.536 -29.464 3.682 C -29.554 2.946 -29.702 2.161 -29.906 1.329 C -30.113 .496 -30.35 -.292 -30.621 -1.036 C -30.894 -1.781 -31.166 -2.465 -31.442 -3.086 C -31.721 -3.709 -31.94 -4.208 -32.106 -4.58 C -32.45 -5.085 -32.867 -5.622 -33.359 -6.192 C -33.67 -6.553 -34.02 -6.733 -34.407 -6.733 C -34.634 -6.733 -34.874 -6.671 -35.126 -6.548 C -35.216 -5.943 -35.144 -5.162 -34.913 -4.206 M 83.754 -77.677 C 85.647 -74.715 87.287 -71.391 88.674 -67.706 C 90.061 -64.02 91.3 -60.104 92.396 -55.961 C 93.492 -51.814 94.653 -47.633 95.88 -43.41 C 96.435 -41.569 97.093 -39.615 97.854 -37.549 C 98.616 -35.483 99.452 -33.44 100.362 -31.42 C 101.271 -29.4 102.238 -27.432 103.261 -25.516 C 104.282 -23.598 105.337 -21.81 106.427 -20.143 C 106.645 -19.797 107 -19.314 107.492 -18.689 C 107.984 -18.067 108.524 -17.433 109.11 -16.789 C 109.695 -16.144 110.25 -15.526 110.77 -14.937 C 111.287 -14.346 111.684 -13.913 111.958 -13.634 C 112.578 -12.962 112.663 -12.268 112.216 -11.547 C 111.769 -10.829 111.097 -10.21 110.201 -9.688 C 109.304 -9.169 108.294 -8.868 107.17 -8.783 C 107.044 -8.774 106.92 -8.769 106.798 -8.769 C 105.838 -8.769 105.029 -9.061 104.372 -9.646 C 103.358 -10.584 102.335 -11.75 101.306 -13.145 C 100.275 -14.541 99.287 -15.971 98.343 -17.437 C 97.397 -18.901 96.537 -20.283 95.763 -21.582 C 94.986 -22.882 94.381 -23.876 93.942 -24.566 C 92.7 -26.521 91.397 -28.501 90.03 -30.506 C 88.662 -32.51 87.099 -34.34 85.337 -35.997 C 84.243 -37.112 83.316 -37.798 82.556 -38.056 C 82.212 -38.173 81.906 -38.232 81.637 -38.232 C 81.309 -38.232 81.036 -38.145 80.818 -37.972 C 80.422 -37.656 80.205 -37.082 80.167 -36.251 C 80.129 -35.421 80.286 -34.473 80.641 -33.406 C 81.195 -31.565 81.926 -29.665 82.83 -27.704 C 83.732 -25.746 84.722 -23.856 85.795 -22.037 C 86.867 -20.217 87.977 -18.508 89.119 -16.909 C 90.261 -15.312 91.318 -13.95 92.292 -12.824 C 93.13 -11.808 93.413 -10.825 93.142 -9.88 C 92.871 -8.934 92.338 -8.16 91.542 -7.558 C 90.744 -6.957 89.817 -6.601 88.757 -6.493 C 88.597 -6.477 88.44 -6.468 88.288 -6.468 C 87.438 -6.468 86.727 -6.726 86.155 -7.238 C 84.88 -8.333 83.487 -9.83 81.978 -11.726 C 80.467 -13.625 78.982 -15.725 77.524 -18.025 C 77.396 -18.228 77.275 -18.448 77.148 -18.653 C 77.066 -18.594 76.984 -18.537 76.882 -18.515 C 76.846 -18.507 76.809 -18.503 76.771 -18.503 C 76.533 -18.503 76.271 -18.662 75.989 -18.978 C 74.472 -20.836 72.785 -22.749 70.932 -24.72 C 69.077 -26.692 67.269 -28.455 65.505 -30.009 C 63.177 -32.051 61.285 -33.073 59.831 -33.073 C 59.466 -33.073 59.128 -33.008 58.818 -32.879 C 57.273 -32.239 56.807 -30.333 57.422 -27.162 C 57.739 -25.673 58.295 -24.017 59.09 -22.192 C 59.884 -20.369 60.78 -18.504 61.779 -16.599 C 62.777 -14.694 63.805 -12.873 64.861 -11.137 C 65.917 -9.399 66.836 -7.867 67.618 -6.539 C 68.875 -4.44 70.196 -2.339 71.581 -.237 C 72.964 1.865 74.39 3.882 75.861 5.811 C 77.053 5.557 78.081 5.337 78.944 5.152 C 79.808 4.968 80.739 4.738 81.741 4.461 C 82.293 4.312 82.811 4.236 83.294 4.236 C 83.737 4.236 84.15 4.299 84.536 4.426 C 85.34 4.689 86.09 5.137 86.784 5.768 C 87.48 6.397 88.138 7.146 88.759 8.01 C 89.378 8.873 89.999 9.737 90.621 10.603 C 90.216 10.75 89.633 10.938 88.871 11.163 C 88.108 11.386 87.295 11.592 86.432 11.777 C 85.568 11.961 84.693 12.163 83.805 12.385 C 82.918 12.604 82.123 12.82 81.422 13.033 C 82.646 14.391 83.812 15.622 84.919 16.726 C 86.025 17.828 87.085 18.707 88.099 19.363 C 88.004 20.38 87.698 21.208 87.181 21.848 C 86.663 22.488 86.048 22.963 85.336 23.271 C 84.757 23.519 84.143 23.644 83.492 23.644 C 83.34 23.644 83.185 23.637 83.028 23.623 C 82.201 23.549 81.434 23.309 80.725 22.899 C 79.351 22.009 77.938 20.863 76.486 19.459 C 75.034 18.056 73.496 16.469 71.872 14.698 C 71.011 14.757 69.994 14.803 68.818 14.837 C 67.67 14.868 66.666 14.885 65.81 14.885 L 65.745 14.885 C 64.681 14.863 63.662 14.613 62.688 14.136 C 61.713 13.659 60.849 13.034 60.092 12.261 C 59.334 11.488 58.684 10.63 58.141 9.687 C 57.596 8.744 57.187 7.773 56.912 6.773 C 58.123 7.199 59.5 7.449 61.044 7.526 C 61.607 7.554 62.188 7.568 62.784 7.568 C 63.816 7.568 64.896 7.526 66.024 7.443 C 65.77 7.124 65.531 6.816 65.314 6.521 C 65.095 6.224 64.858 5.917 64.604 5.598 C 63.629 4.248 62.49 2.638 61.189 .768 C 59.886 -1.104 58.536 -3.121 57.14 -5.284 C 55.744 -7.447 54.343 -9.701 52.939 -12.048 C 51.66 -14.187 50.519 -16.296 49.484 -18.382 C 49.26 -18.638 49.054 -18.886 48.826 -19.142 C 47.343 -20.817 45.871 -22.37 44.409 -23.798 C 42.947 -25.229 41.687 -26.235 40.627 -26.815 C 39.694 -27.319 38.941 -27.57 38.368 -27.57 C 38.334 -27.57 38.3 -27.569 38.267 -27.568 C 37.682 -27.534 37.276 -27.323 37.05 -26.931 C 36.821 -26.54 36.737 -25.992 36.797 -25.288 C 36.854 -24.583 36.996 -23.851 37.224 -23.089 C 37.476 -22.208 37.952 -21.081 38.655 -19.706 C 39.356 -18.331 40.17 -16.869 41.097 -15.323 C 42.021 -13.78 42.981 -12.225 43.973 -10.662 C 44.965 -9.101 45.878 -7.678 46.717 -6.394 C 47.555 -5.111 48.232 -4.056 48.754 -3.234 C 49.274 -2.411 49.547 -1.942 49.573 -1.822 C 49.646 -.903 49.305 -.034 48.547 .784 C 47.978 1.398 47.323 1.705 46.586 1.705 C 46.342 1.705 46.089 1.671 45.826 1.604 C 45.033 1.402 44.04 .695 42.846 -.51 C 41.65 -1.716 40.436 -3.076 39.207 -4.585 C 37.978 -6.097 36.828 -7.594 35.761 -9.077 C 34.692 -10.562 33.859 -11.674 33.263 -12.418 C 32.7 -13.293 31.892 -14.366 30.84 -15.634 C 29.786 -16.902 28.633 -18.134 27.378 -19.328 C 26.123 -20.522 24.845 -21.539 23.541 -22.38 C 22.238 -23.22 21.019 -23.673 19.883 -23.739 C 19.803 -23.745 19.725 -23.749 19.65 -23.749 C 18.728 -23.749 18.266 -23.286 18.264 -22.362 C 18.259 -21.365 18.618 -20.07 19.335 -18.48 C 20.052 -16.89 20.989 -15.144 22.147 -13.244 C 23.306 -11.343 24.477 -9.525 25.662 -7.787 C 26.847 -6.048 27.932 -4.49 28.915 -3.112 C 29.896 -1.735 30.601 -.782 31.028 -.25 C 31.6 .375 31.976 1.041 32.161 1.75 C 32.345 2.458 32.331 3.115 32.119 3.721 C 31.906 4.328 31.528 4.815 30.985 5.182 C 30.529 5.488 29.975 5.642 29.322 5.642 C 29.195 5.642 29.065 5.636 28.931 5.625 C 27.722 5.512 26.367 4.791 24.865 3.465 C 23.364 2.137 21.838 .486 20.291 -1.485 C 18.744 -3.457 17.229 -5.638 15.747 -8.029 C 14.822 -9.521 13.973 -10.972 13.158 -12.403 C 13.036 -12.57 12.938 -12.731 12.813 -12.9 C 11.745 -14.352 10.676 -15.651 9.609 -16.795 C 8.541 -17.941 7.529 -18.83 6.577 -19.468 C 5.897 -19.92 5.28 -20.147 4.726 -20.147 C 4.501 -20.147 4.287 -20.11 4.083 -20.036 C 3.313 -19.773 2.872 -19.163 2.757 -18.2 C 2.642 -17.239 2.745 -16.101 3.064 -14.786 C 3.384 -13.473 3.867 -12.053 4.516 -10.527 C 5.163 -9.001 5.835 -7.54 6.53 -6.142 C 7.226 -4.744 7.909 -3.468 8.58 -2.311 C 9.251 -1.156 9.769 -.291 10.135 .284 C 10.5 .858 10.802 1.271 11.044 1.523 C 11.283 1.773 11.423 2.08 11.46 2.443 C 11.426 3.304 11.102 4.011 10.485 4.565 C 9.958 5.039 9.339 5.275 8.63 5.275 C 8.51 5.275 8.386 5.269 8.261 5.255 C 7.574 5.143 6.952 4.915 6.397 4.575 C 5.842 4.232 5.529 4.036 5.464 3.983 C 5.428 6.007 5.051 7.684 4.33 9.014 C 3.61 10.343 2.135 11.185 -.093 11.539 C -.54 11.614 -.986 11.652 -1.433 11.652 C -2.85 11.652 -4.261 11.271 -5.667 10.507 C -7.516 9.504 -9.313 8.112 -11.059 6.333 C -12.805 4.553 -14.457 2.505 -16.013 .186 C -16.066 .105 -16.111 .025 -16.165 -.055 C -16.523 .227 -16.956 .384 -17.481 .384 C -17.521 .384 -17.562 .383 -17.604 .381 C -17.935 -.428 -18.391 -1.455 -18.974 -2.701 C -19.557 -3.948 -20.244 -5.274 -21.033 -6.682 C -21.824 -8.09 -22.703 -9.519 -23.674 -10.964 C -24.645 -12.413 -25.637 -13.723 -26.65 -14.896 C -27.664 -16.072 -28.687 -17.048 -29.719 -17.826 C -30.75 -18.606 -31.721 -19.048 -32.631 -19.148 C -32.889 -19.178 -33.136 -19.193 -33.372 -19.193 C -34.748 -19.193 -35.759 -18.687 -36.403 -17.674 C -37.158 -16.49 -37.43 -14.917 -37.212 -12.955 C -36.477 -13.044 -35.787 -13.118 -35.144 -13.18 C -34.955 -13.198 -34.767 -13.208 -34.58 -13.208 C -34.127 -13.208 -33.677 -13.155 -33.229 -13.048 C -32.596 -12.896 -31.956 -12.577 -31.307 -12.091 C -30.657 -11.604 -29.991 -10.828 -29.309 -9.759 C -28.226 -8.124 -27.292 -6.16 -26.513 -3.868 C -25.734 -1.576 -25.226 .674 -24.991 2.88 C -24.758 5.085 -24.847 7.063 -25.263 8.813 C -25.678 10.562 -26.539 11.743 -27.847 12.354 C -28.527 12.67 -29.214 12.828 -29.906 12.828 C -30.674 12.828 -31.45 12.634 -32.233 12.245 C -33.725 11.505 -35.112 10.498 -36.395 9.22 C -37.679 7.941 -38.819 6.533 -39.815 4.994 C -40.813 3.453 -41.564 2.215 -42.07 1.277 C -42.908 -.407 -43.794 -2.384 -44.727 -4.652 C -45.661 -6.923 -46.407 -9.273 -46.966 -11.707 C -47.527 -14.143 -47.766 -16.532 -47.69 -18.876 C -47.614 -21.221 -46.987 -23.28 -45.808 -25.056 C -45.218 -25.943 -44.527 -26.767 -43.729 -27.523 C -42.933 -28.279 -42.081 -28.911 -41.173 -29.418 C -40.267 -29.926 -39.321 -30.249 -38.339 -30.386 C -38.061 -30.426 -37.781 -30.445 -37.499 -30.445 C -36.788 -30.445 -36.066 -30.319 -35.333 -30.066 C -34.013 -29.64 -32.574 -28.738 -31.021 -27.354 C -29.47 -25.972 -27.957 -24.348 -26.487 -22.481 C -26.163 -22.071 -25.855 -21.625 -25.538 -21.199 C -25.812 -23.025 -25.834 -24.548 -25.583 -25.744 C -25.235 -27.402 -24.589 -28.572 -23.648 -29.25 C -22.918 -29.778 -22.059 -30.041 -21.071 -30.041 C -20.787 -30.041 -20.492 -30.02 -20.187 -29.976 C -18.819 -29.781 -17.391 -29.286 -15.899 -28.49 C -14.408 -27.695 -12.967 -26.634 -11.574 -25.308 C -10.182 -23.982 -9.037 -22.539 -8.141 -20.977 C -8.353 -23.039 -8.3 -24.881 -7.978 -26.507 C -7.655 -28.133 -7.063 -29.357 -6.198 -30.182 C -5.446 -30.899 -4.459 -31.258 -3.238 -31.258 C -3.057 -31.258 -2.87 -31.25 -2.678 -31.234 C -1.195 -31.112 .627 -30.367 2.789 -28.998 C 4.334 -28.016 5.811 -26.814 7.223 -25.404 C 7.052 -26.405 6.979 -27.391 7.06 -28.357 C 7.154 -29.5 7.429 -30.541 7.882 -31.48 C 8.333 -32.418 8.972 -33.21 9.799 -33.856 C 10.626 -34.503 11.7 -34.936 13.023 -35.16 C 13.416 -35.224 13.808 -35.256 14.196 -35.256 C 14.938 -35.256 15.671 -35.14 16.396 -34.907 C 17.501 -34.554 18.56 -34.051 19.574 -33.395 C 20.587 -32.742 21.513 -31.991 22.351 -31.144 C 23.187 -30.296 23.939 -29.477 24.61 -28.687 C 24.366 -29.819 24.309 -31.021 24.439 -32.295 C 24.568 -33.571 24.895 -34.731 25.417 -35.778 C 25.938 -36.827 26.679 -37.656 27.638 -38.268 C 28.377 -38.74 29.271 -38.976 30.32 -38.976 C 30.628 -38.976 30.95 -38.956 31.284 -38.915 C 32.182 -38.797 33.129 -38.518 34.129 -38.08 C 35.127 -37.64 36.195 -36.953 37.332 -36.013 C 38.917 -34.736 40.601 -33.213 42.385 -31.448 C 43.483 -30.361 44.547 -29.198 45.62 -28.059 C 45.33 -29.192 45.119 -30.273 45.057 -31.25 C 44.874 -33.266 44.978 -35.189 45.367 -37.015 C 45.755 -38.844 46.435 -40.327 47.406 -41.469 C 48.377 -42.611 49.678 -43.308 51.305 -43.563 C 51.591 -43.607 51.888 -43.63 52.195 -43.63 C 53.636 -43.63 55.307 -43.141 57.21 -42.161 C 58.678 -41.416 60.438 -40.172 62.491 -38.429 C 64.545 -36.688 66.587 -34.787 68.614 -32.729 C 69.598 -31.731 70.527 -30.738 71.413 -29.749 C 70.973 -30.849 70.556 -31.945 70.207 -33.032 C 69.399 -35.553 68.88 -37.948 68.648 -40.222 C 68.417 -42.494 68.612 -44.489 69.232 -46.205 C 69.854 -47.922 70.908 -49.146 72.395 -49.88 C 73.234 -50.294 74.099 -50.501 74.99 -50.501 C 75.678 -50.501 76.381 -50.377 77.1 -50.131 C 78.998 -49.527 80.61 -48.574 81.938 -47.271 C 83.265 -45.967 84.551 -44.614 85.797 -43.208 C 84.54 -47.122 83.093 -51.107 81.455 -55.167 C 79.815 -59.226 78.084 -62.999 76.259 -66.486 C 75.048 -68.751 73.749 -70.532 72.362 -71.831 C 70.975 -73.127 69.625 -73.907 68.312 -74.173 C 67.948 -74.246 67.595 -74.282 67.249 -74.282 C 66.343 -74.282 65.494 -74.031 64.703 -73.53 C 63.611 -72.836 62.754 -71.632 62.132 -69.916 C 61.644 -68.702 61.406 -67.575 61.42 -66.536 C 61.435 -65.495 61.383 -64.358 61.263 -63.121 C 61.259 -62.569 61.167 -62.253 60.991 -62.175 C 60.934 -62.148 60.873 -62.136 60.81 -62.136 C 60.68 -62.136 60.537 -62.189 60.383 -62.297 C 60.152 -62.457 59.898 -62.69 59.622 -63 C 59.347 -63.308 59.104 -63.574 58.896 -63.799 C 58.053 -64.875 57.437 -66.114 57.05 -67.515 C 56.662 -68.913 56.422 -70.374 56.326 -71.896 C 56.233 -73.416 56.279 -74.922 56.464 -76.41 C 56.649 -77.899 56.952 -79.276 57.374 -80.546 C 58.213 -83.14 59.385 -85.005 60.893 -86.139 C 62.399 -87.271 64.049 -87.915 65.84 -88.067 C 66.172 -88.095 66.507 -88.109 66.843 -88.109 C 68.318 -88.109 69.832 -87.839 71.383 -87.3 C 73.288 -86.637 75.059 -85.775 76.698 -84.719 C 79.507 -82.983 81.858 -80.636 83.754 -77.677 "/>
<path transform="matrix(1,0,0,-1,241.665,191.8936)" d="M 0 0 C -.517 .641 -1.133 .885 -1.853 .73 C -2.514 .561 -3.385 .064 -4.467 -.759 C -5.551 -1.584 -6.431 -2.265 -7.108 -2.804 C -7.644 -3.249 -8.318 -3.913 -9.132 -4.795 C -9.947 -5.679 -10.765 -6.638 -11.582 -7.676 C -12.401 -8.714 -13.147 -9.72 -13.827 -10.694 C -14.508 -11.669 -15.015 -12.494 -15.349 -13.17 C -16.114 -14.686 -16.261 -16.01 -15.79 -17.141 C -15.32 -18.272 -14.602 -19.052 -13.634 -19.48 C -12.668 -19.909 -11.646 -19.944 -10.57 -19.585 C -9.495 -19.227 -8.707 -18.323 -8.204 -16.874 C -7.99 -16.172 -7.624 -15.207 -7.106 -13.979 C -6.593 -12.75 -6.006 -11.491 -5.35 -10.199 C -4.695 -8.908 -4.028 -7.698 -3.346 -6.567 C -2.665 -5.438 -2.079 -4.614 -1.593 -4.096 C -1.178 -3.626 -.826 -3.22 -.532 -2.877 C -.24 -2.536 -.003 -2.229 .182 -1.957 C .574 -1.294 .515 -.643 0 0 "/>
<path transform="matrix(1,0,0,-1,156.5894,229.5371)" d="M 0 0 C .256 1.271 .655 2.674 1.197 4.211 C 1.738 5.746 2.417 7.322 3.236 8.939 C 4.054 10.558 4.897 12.036 5.767 13.378 C 6.637 14.719 7.53 15.861 8.446 16.805 C 9.362 17.748 10.221 18.327 11.021 18.544 C 11.255 18.598 11.469 18.625 11.66 18.625 C 12.22 18.625 12.595 18.395 12.784 17.935 C 13.037 17.315 13.054 16.537 12.84 15.601 C 12.624 14.662 12.224 13.688 11.641 12.671 C 11.056 11.653 10.389 10.855 9.637 10.272 C 9.854 10.154 10.078 10.095 10.312 10.095 C 10.594 10.095 10.888 10.182 11.194 10.355 C 11.754 10.67 12.22 10.913 12.59 11.083 C 12.447 10.479 12.017 9.503 11.301 8.156 C 10.582 6.811 9.727 5.391 8.73 3.902 C 7.732 2.412 6.723 1.015 5.704 -.29 C 4.683 -1.596 3.799 -2.51 3.048 -3.032 C 2.86 -3.208 2.61 -3.368 2.301 -3.51 C 1.991 -3.651 1.682 -3.748 1.376 -3.797 C 1.291 -3.812 1.207 -3.818 1.124 -3.818 C .91 -3.818 .706 -3.771 .512 -3.675 C .242 -3.544 .052 -3.293 -.056 -2.924 C -.278 -2.246 -.258 -1.271 0 0 M 109.331 -1.008 C 109.558 -.946 109.786 -.886 110 -.814 C 110.018 -.823 110.044 -.818 110.059 -.83 C 110.256 -1.001 110.29 -1.509 110.157 -2.353 C 109.972 -3.07 109.723 -3.828 109.41 -4.627 C 109.096 -5.426 108.756 -6.176 108.39 -6.878 C 108.024 -7.58 107.662 -8.223 107.307 -8.803 C 106.95 -9.384 106.667 -9.848 106.453 -10.196 C 106.047 -10.651 105.562 -11.128 105 -11.63 C 104.693 -11.902 104.376 -12.039 104.048 -12.039 C 103.774 -12.039 103.491 -11.942 103.201 -11.75 C 103.192 -11.139 103.365 -10.374 103.719 -9.456 C 104.074 -8.539 104.525 -7.569 105.072 -6.546 C 105.618 -5.524 106.205 -4.566 106.833 -3.671 C 107.459 -2.777 108.073 -2.052 108.671 -1.49 C 108.928 -1.274 109.139 -1.125 109.331 -1.008 M -8.758 -15.194 C -8.088 -15.612 -7.333 -15.82 -6.494 -15.82 C -6.099 -15.82 -5.686 -15.774 -5.254 -15.683 C -3.903 -15.395 -2.512 -14.803 -1.077 -13.907 C .354 -13.013 1.721 -11.855 3.021 -10.438 C 4.319 -9.02 5.362 -7.501 6.15 -5.883 C 6.078 -7.953 6.257 -9.788 6.69 -11.387 C 7.123 -12.989 7.797 -14.169 8.716 -14.933 C 9.426 -15.523 10.302 -15.818 11.343 -15.818 C 11.648 -15.818 11.967 -15.793 12.299 -15.742 C 13.771 -15.52 15.538 -14.652 17.602 -13.139 C 19.104 -12.032 20.521 -10.711 21.854 -9.171 C 23.187 -7.633 24.462 -6.016 25.68 -4.32 C 26.327 -3.42 26.938 -2.522 27.524 -1.629 C 26.868 -3.547 26.458 -5.293 26.361 -6.824 C 26.178 -8.841 26.282 -10.765 26.671 -12.591 C 27.059 -14.419 27.739 -15.902 28.71 -17.044 C 29.681 -18.187 30.981 -18.884 32.609 -19.139 C 32.895 -19.183 33.192 -19.205 33.5 -19.205 C 34.94 -19.205 36.611 -18.716 38.514 -17.736 C 39.982 -16.991 41.742 -15.748 43.795 -14.004 C 45.849 -12.263 47.891 -10.362 49.918 -8.304 C 49.937 -8.285 49.953 -8.267 49.97 -8.249 C 49.383 -9.865 48.893 -11.418 48.51 -12.901 C 48.192 -14.081 48.016 -15.242 47.986 -16.388 C 47.955 -17.536 48.083 -18.592 48.373 -19.559 C 48.66 -20.525 49.091 -21.337 49.667 -21.991 C 50.241 -22.646 51.011 -23.047 51.977 -23.194 C 52.197 -23.222 52.426 -23.235 52.665 -23.235 C 53.875 -23.235 55.324 -22.885 57.014 -22.185 C 59.033 -21.347 60.954 -20.189 62.77 -18.714 C 63.072 -18.469 63.648 -17.97 64.499 -17.22 C 65.004 -16.771 65.566 -16.271 66.157 -15.741 C 65.552 -17.535 65.318 -19.242 65.501 -20.851 C 65.717 -22.766 66.242 -24.34 67.071 -25.572 C 67.898 -26.808 68.953 -27.637 70.233 -28.063 C 70.678 -28.212 71.121 -28.286 71.56 -28.286 C 72.382 -28.286 73.194 -28.025 73.995 -27.505 C 76.345 -25.512 78.932 -23.148 81.753 -20.414 C 84.573 -17.68 87.503 -15.015 90.544 -12.42 C 91.341 -11.739 92.142 -11.078 92.946 -10.433 C 92.136 -12.005 91.415 -13.629 90.787 -15.311 C 89.911 -17.651 89.359 -19.989 89.126 -22.321 C 88.895 -24.656 89.246 -26.78 90.182 -28.696 C 90.65 -29.653 91.227 -30.561 91.919 -31.414 C 92.609 -32.269 93.371 -33.007 94.205 -33.63 C 95.037 -34.251 95.931 -34.695 96.886 -34.962 C 97.416 -35.108 97.961 -35.183 98.522 -35.183 C 98.973 -35.183 99.435 -35.135 99.907 -35.039 C 101.273 -34.789 102.818 -34.083 104.54 -32.915 C 106.259 -31.75 107.971 -30.338 109.673 -28.681 C 111.375 -27.025 113.031 -25.21 114.638 -23.239 C 116.244 -21.268 117.678 -19.359 118.938 -17.511 C 119.908 -16.188 130.815 -.891 131.66 .382 C 132.502 1.654 133.039 2.557 133.268 3.087 C 133.638 3.85 133.662 4.642 133.335 5.466 C 133.008 6.288 132.39 6.739 131.481 6.818 C 131.047 6.061 130.46 5.102 129.719 3.944 C 128.976 2.783 118.122 -12.441 117.155 -13.733 C 116.186 -15.025 115.126 -16.326 113.974 -17.632 C 112.821 -18.939 111.666 -20.108 110.508 -21.141 C 109.348 -22.172 108.207 -23.006 107.082 -23.642 C 105.987 -24.261 104.993 -24.571 104.096 -24.571 C 104.071 -24.571 104.045 -24.571 104.02 -24.57 C 102.25 -24.541 101.067 -23.888 100.474 -22.613 C 99.88 -21.34 99.819 -19.745 100.292 -17.827 C 101.009 -18.014 101.683 -18.178 102.313 -18.323 C 102.745 -18.424 103.181 -18.475 103.622 -18.475 C 103.823 -18.475 104.025 -18.464 104.228 -18.442 C 104.875 -18.377 105.552 -18.144 106.261 -17.746 C 106.967 -17.349 107.729 -16.667 108.546 -15.697 C 109.835 -14.219 111.017 -12.395 112.091 -10.224 C 113.165 -8.055 113.963 -5.892 114.485 -3.735 C 115.007 -1.579 115.176 .394 114.996 2.183 C 114.819 3.912 114.149 5.158 113.006 5.942 C 112.694 6.461 112.288 6.914 111.759 7.282 C 111.087 7.751 110.199 7.986 109.094 7.986 C 108.727 7.986 108.336 7.96 107.922 7.908 C 106.702 7.73 105.194 7.084 103.402 5.97 C 101.609 4.854 99.688 3.501 97.639 1.91 C 95.59 .32 93.498 -1.401 91.363 -3.253 C 89.226 -5.105 87.217 -6.874 85.335 -8.562 C 83.452 -10.251 81.783 -11.733 80.33 -13.014 C 78.875 -14.294 77.818 -15.177 77.156 -15.658 C 77.382 -14.585 77.852 -13.315 78.569 -11.847 C 79.284 -10.38 80.125 -8.829 81.093 -7.197 C 82.061 -5.566 83.078 -3.929 84.142 -2.284 C 85.205 -.642 86.214 .888 87.168 2.305 C 88.122 3.723 88.918 4.986 89.559 6.096 C 90.197 7.205 90.61 8.053 90.795 8.636 C 90.948 9.353 90.885 10.019 90.613 10.637 C 90.337 11.256 89.931 11.763 89.393 12.156 C 88.853 12.55 88.202 12.782 87.438 12.851 C 87.35 12.858 87.264 12.862 87.177 12.862 C 86.502 12.862 85.84 12.627 85.191 12.158 C 84.178 11.499 83.059 10.475 81.832 9.086 C 80.603 7.695 79.334 6.111 78.024 4.334 C 76.713 2.556 75.432 .693 74.179 -1.251 C 73.369 -2.51 72.665 -3.671 71.935 -4.856 C 71.135 -5.609 70.344 -6.359 69.498 -7.131 C 68.252 -8.263 67.062 -9.299 65.922 -10.235 C 65.56 -10.469 65.05 -10.809 64.391 -11.257 C 63.733 -11.708 63.048 -12.057 62.339 -12.308 C 61.864 -12.477 61.419 -12.561 61.007 -12.561 C 60.806 -12.561 60.613 -12.541 60.427 -12.501 C 59.861 -12.377 59.549 -11.873 59.494 -10.988 C 59.402 -9.972 59.633 -8.697 60.185 -7.163 C 60.735 -5.632 61.437 -4.055 62.29 -2.431 C 63.14 -.809 64.039 .743 64.983 2.22 C 65.928 3.697 66.683 4.874 67.248 5.749 C 67.798 6.564 68.354 7.332 68.917 8.052 C 69.477 8.771 69.994 9.422 70.463 10.006 C 70.932 10.59 71.318 11.067 71.617 11.438 C 71.916 11.81 72.078 12.054 72.104 12.175 C 72.279 12.697 72.193 13.23 71.844 13.773 C 71.495 14.317 71.012 14.827 70.399 15.305 C 69.786 15.779 69.113 16.128 68.382 16.351 C 67.967 16.476 67.562 16.539 67.169 16.539 C 66.872 16.539 66.581 16.502 66.296 16.43 C 65.563 16.216 64.75 15.705 63.86 14.902 C 62.967 14.098 62.094 13.165 61.242 12.105 C 60.385 11.042 59.591 9.969 58.857 8.883 C 58.122 7.794 57.551 6.891 57.146 6.169 C 56.533 5.22 55.911 4.174 55.284 3.081 C 54.319 1.974 53.314 .853 52.236 -.295 C 50.381 -2.268 48.573 -4.03 46.809 -5.584 C 44.481 -7.626 42.589 -8.647 41.135 -8.647 C 40.77 -8.647 40.432 -8.583 40.122 -8.454 C 38.578 -7.814 38.111 -5.908 38.726 -2.737 C 39.043 -1.249 39.599 .408 40.394 2.232 C 41.188 4.056 42.084 5.921 43.083 7.826 C 44.082 9.73 45.109 11.552 46.166 13.288 C 47.22 15.025 48.14 16.558 48.922 17.886 C 50.179 19.984 51.5 22.085 52.885 24.187 C 54.268 26.29 55.693 28.307 57.165 30.235 C 58.356 29.981 59.385 29.762 60.249 29.577 C 61.112 29.393 62.043 29.162 63.045 28.886 C 63.597 28.736 64.115 28.661 64.598 28.661 C 65.042 28.661 65.455 28.725 65.84 28.852 C 66.644 29.113 67.394 29.562 68.088 30.192 C 68.785 30.822 69.442 31.57 70.063 32.435 C 70.682 33.297 71.303 34.162 71.925 35.027 C 71.52 35.176 70.936 35.362 70.174 35.588 C 69.413 35.812 68.599 36.017 67.736 36.202 C 66.873 36.386 65.998 36.588 65.109 36.81 C 64.222 37.028 63.427 37.245 62.726 37.458 C 63.95 38.815 65.115 40.047 66.223 41.15 C 67.33 42.253 68.389 43.131 69.403 43.788 C 69.308 44.805 69.002 45.633 68.485 46.273 C 67.967 46.913 67.352 47.388 66.64 47.695 C 66.061 47.943 65.447 48.068 64.796 48.068 C 64.643 48.068 64.489 48.062 64.333 48.048 C 63.505 47.975 62.738 47.734 62.029 47.324 C 60.655 46.434 59.242 45.288 57.791 43.885 C 56.337 42.481 54.8 40.894 53.176 39.123 C 52.315 39.182 51.298 39.228 50.123 39.262 C 48.976 39.292 47.973 39.31 47.117 39.31 L 47.049 39.31 C 45.985 39.288 44.965 39.038 43.993 38.561 C 43.017 38.083 42.153 37.458 41.396 36.686 C 40.638 35.913 39.988 35.055 39.445 34.111 C 38.9 33.169 38.491 32.197 38.216 31.197 C 39.427 31.623 40.803 31.874 42.347 31.951 C 42.912 31.979 43.493 31.992 44.088 31.992 C 45.121 31.992 46.201 31.951 47.329 31.868 C 47.074 31.549 46.835 31.24 46.619 30.946 C 46.399 30.649 46.163 30.342 45.908 30.023 C 44.933 28.672 43.794 27.062 42.494 25.192 C 41.19 23.32 39.84 21.304 38.444 19.142 C 37.068 17.008 35.687 14.783 34.302 12.472 C 34.239 12.806 34.139 13.133 33.978 13.45 C 33.691 14.009 33.247 14.357 32.642 14.502 C 32.382 14.023 31.942 13.201 31.323 12.033 C 30.702 10.866 29.986 9.55 29.174 8.085 C 28.36 6.619 27.471 5.127 26.504 3.606 C 25.537 2.085 24.56 .716 23.573 -.498 C 22.585 -1.715 21.637 -2.671 20.729 -3.372 C 20.03 -3.91 19.385 -4.181 18.794 -4.181 C 18.618 -4.181 18.447 -4.156 18.281 -4.108 C 17.495 -3.899 17.013 -3.319 16.833 -2.368 C 16.651 -1.417 16.678 -.274 16.906 1.059 C 17.135 2.392 17.52 3.84 18.062 5.407 C 18.605 6.973 19.175 8.479 19.774 9.921 C 20.373 11.361 20.967 12.683 21.557 13.882 C 22.148 15.079 22.605 15.979 22.931 16.577 C 23.256 17.175 23.53 17.607 23.753 17.874 C 23.975 18.141 24.093 18.456 24.106 18.822 C 24.013 19.679 23.641 20.361 22.989 20.872 C 22.486 21.265 21.922 21.461 21.298 21.461 C 21.112 21.461 20.919 21.443 20.722 21.408 C 20.044 21.249 19.441 20.979 18.91 20.602 C 18.378 20.223 18.081 20.006 18.019 19.947 C 17.845 21.966 17.353 23.612 16.544 24.891 C 15.735 26.168 14.207 26.906 11.958 27.107 C 11.69 27.134 11.424 27.147 11.158 27.147 C 9.556 27.147 7.993 26.664 6.469 25.697 C 4.693 24.571 2.994 23.06 1.374 21.165 C -.246 19.27 -1.753 17.113 -3.148 14.693 C -4.543 12.272 -5.77 9.846 -6.829 7.415 C -7.89 4.983 -8.777 2.666 -9.494 .467 C -10.21 -1.734 -10.685 -3.562 -10.918 -5.017 C -11.386 -7.926 -11.388 -10.197 -10.927 -11.828 C -10.466 -13.46 -9.743 -14.582 -8.758 -15.194 "/>
<path transform="matrix(1,0,0,-1,204.6611,175.27)" d="M 0 0 C -4.255 -3.495 -14.945 3.453 -19.587 5.052 C -25.853 7.21 -32.194 9.038 -38.884 8.856 C -48.597 8.592 -57.034 4.594 -62.943 -3.117 C -66.631 -7.928 -63.674 -16 -58.754 -9.579 C -48.06 4.376 -28.708 -4.273 -15.683 -9.055 C -9.518 -11.319 -3.567 -13.105 2.025 -8.51 C 5.995 -5.25 6.111 5.021 0 0 "/>
<path transform="matrix(1,0,0,-1,187.6582,189.8232)" d="M 0 0 C -7.464 -.584 -13.598 5.957 -21.225 5.875 C -27.603 5.807 -32.767 2.735 -37.215 -1.558 C -40.981 -5.193 -38.525 -11.576 -33.723 -6.942 C -23.729 2.703 -12.973 -9.837 -2.08 -8.985 C 1.67 -8.692 5.222 .408 0 0 "/>
<path transform="matrix(1,0,0,-1,100.77,166.7588)" d="M 0 0 C .125 1.031 .192 1.779 .194 2.245 C .197 2.712 .604 3.214 1.415 3.754 C 2.965 4.817 4.838 5.972 7.031 7.214 C 9.222 8.458 11.275 9.437 13.192 10.153 C 17.101 11.592 20.127 12.313 22.269 12.313 C 22.394 12.313 22.516 12.311 22.635 12.306 C 23.065 12.288 23.456 12.238 23.808 12.156 C 25.923 11.663 26.98 10.539 26.981 8.785 C 26.979 7.029 26.093 4.916 24.319 2.441 C 22.546 -.034 20.251 -2.337 17.436 -4.472 C 15.067 -6.364 12.691 -8.22 10.307 -10.044 C 7.922 -11.867 5.262 -13.107 2.332 -13.764 C 2.005 -13.265 1.683 -12.389 1.366 -11.133 C 1.049 -9.881 .782 -8.525 .563 -7.071 C .345 -5.616 .175 -4.223 .056 -2.888 C -.065 -1.555 -.083 -.593 0 0 M -6.736 -26.269 C -5.072 -27.149 -3.3 -27.63 -1.418 -27.709 C -1.413 -27.709 -1.407 -27.71 -1.402 -27.71 C -1.155 -27.72 -.907 -27.725 -.658 -27.725 C .978 -27.725 2.645 -27.505 4.344 -27.063 C 6.306 -26.551 8.085 -25.865 9.685 -25.007 C 11.797 -23.89 13.927 -22.536 16.078 -20.942 C 18.228 -19.351 20.255 -17.697 22.164 -15.98 C 24.069 -14.265 25.827 -12.601 27.436 -10.986 C 29.044 -9.374 30.388 -7.944 31.47 -6.698 C 33.837 -4.163 35.533 -1.581 36.555 1.047 C 37.578 3.675 38.08 6.15 38.061 8.475 C 38.041 10.796 37.602 12.918 36.743 14.839 C 35.882 16.759 34.733 18.291 33.294 19.437 C 31.856 20.582 30.206 21.233 28.345 21.391 C 28.228 21.4 28.111 21.408 27.993 21.413 C 27.877 21.417 27.761 21.42 27.645 21.42 C 26.003 21.42 24.317 20.944 22.589 19.993 C 24.607 22.808 26.202 25.922 27.371 29.335 C 28.54 32.749 29.284 36.209 29.609 39.72 C 29.933 43.229 29.834 46.699 29.317 50.128 C 28.8 53.557 27.889 56.664 26.584 59.452 C 25.279 62.237 23.587 64.597 21.508 66.532 C 19.425 68.464 16.998 69.711 14.224 70.27 C 13.449 70.427 12.645 70.522 11.812 70.556 C 11.577 70.566 11.34 70.571 11.101 70.571 C 9.144 70.571 7.031 70.248 4.76 69.6 C 1.226 68.593 -2.623 66.513 -6.787 63.36 C -7.68 62.874 -8.96 61.799 -10.629 60.136 C -12.297 58.474 -14.119 56.454 -16.092 54.078 C -18.068 51.703 -20.116 49.023 -22.24 46.041 C -24.365 43.058 -26.326 39.985 -28.125 36.827 C -29.924 33.666 -31.469 30.491 -32.759 27.302 C -34.049 24.113 -34.895 21.094 -35.295 18.248 C -35.695 15.401 -35.526 12.808 -34.786 10.467 C -34.047 8.125 -32.551 6.241 -30.297 4.812 C -29.65 4.403 -29.038 4.186 -28.458 4.162 C -28.423 4.16 -28.387 4.16 -28.352 4.16 C -27.849 4.16 -27.372 4.307 -26.919 4.603 C -25.921 5.257 -25.059 6.201 -24.333 7.437 C -23.607 8.675 -23.049 10.017 -22.657 11.465 C -22.266 12.913 -22.094 14.063 -22.14 14.912 C -22.096 15.352 -22.253 15.655 -22.614 15.826 C -22.691 15.863 -22.766 15.882 -22.837 15.885 C -22.843 15.886 -22.85 15.886 -22.856 15.886 C -23.109 15.886 -23.326 15.674 -23.505 15.25 C -23.899 14.446 -24.254 13.561 -24.575 12.594 C -24.895 11.626 -25.336 10.793 -25.895 10.097 C -26.46 11.974 -26.291 14.501 -25.391 17.674 C -24.491 20.847 -23.141 24.248 -21.338 27.875 C -19.538 31.5 -17.431 35.195 -15.014 38.96 C -12.6 42.723 -10.167 46.168 -7.716 49.295 C -7.224 49.978 -6.714 50.648 -6.179 51.305 C -5.646 51.961 -5.125 52.597 -4.619 53.211 C -2.978 55.154 -.975 57 1.391 58.748 C 3.756 60.495 6.138 61.691 8.537 62.336 C 9.542 62.606 10.521 62.742 11.475 62.742 C 11.612 62.742 11.749 62.739 11.885 62.733 C 13.057 62.685 14.188 62.429 15.278 61.967 C 17.375 61.075 18.984 58.93 20.105 55.53 C 21.119 52.604 21.525 49.671 21.326 46.727 C 21.126 43.78 20.55 40.912 19.601 38.122 C 18.651 35.331 17.402 32.669 15.857 30.139 C 14.312 27.607 12.689 25.348 10.987 23.355 C 9.285 21.362 7.607 19.661 5.954 18.252 C 4.299 16.843 2.855 15.857 1.622 15.294 C 1.466 16.619 1.473 18.431 1.64 20.723 C 1.807 23.017 2.088 25.513 2.485 28.217 C 2.881 30.919 3.365 33.714 3.937 36.599 C 4.508 39.483 5.066 42.186 5.611 44.709 C 6.156 47.229 6.68 49.441 7.185 51.346 C 7.689 53.248 8.097 54.628 8.406 55.486 C 8.827 56.797 8.853 57.805 8.481 58.511 C 8.107 59.213 7.545 59.644 6.795 59.798 C 6.603 59.838 6.404 59.861 6.199 59.87 C 6.143 59.872 6.087 59.874 6.03 59.874 C 5.485 59.874 4.898 59.767 4.272 59.555 C 3.339 59.238 2.56 58.723 1.933 58.01 C .034 55.936 -1.738 52.818 -3.383 48.654 C -5.028 44.49 -6.479 39.778 -7.736 34.521 C -8.992 29.26 -10.047 23.744 -10.901 17.967 C -11.755 12.189 -12.329 6.672 -12.618 1.416 C -12.909 -3.842 -12.905 -8.567 -12.609 -12.761 C -12.313 -16.956 -11.657 -20.051 -10.638 -22.041 C -9.703 -23.98 -8.402 -25.391 -6.736 -26.269 "/>
<path transform="matrix(1,0,0,-1,113.0938,275.8193)" d="M 0 0 C -.075 2.474 -.015 5.324 .182 8.551 C .376 11.774 .666 15.216 1.053 18.871 C 1.438 22.525 1.907 26.264 2.459 30.083 C 3.012 33.902 3.686 37.634 4.48 41.275 C 4.459 41.341 4.628 42.058 4.989 43.427 C 5.351 44.795 5.808 46.543 6.362 48.673 C 6.916 50.802 7.56 53.162 8.293 55.756 C 9.025 58.348 9.791 60.895 10.591 63.399 C 11.389 65.903 12.181 68.202 12.967 70.297 C 13.752 72.391 14.479 73.99 15.149 75.091 C 15.75 76.081 16.292 76.575 16.772 76.575 C 16.826 76.575 16.878 76.568 16.931 76.556 C 17.449 76.431 17.814 75.373 18.023 73.385 C 18.298 71.193 18.42 68.568 18.393 65.509 C 18.363 62.448 18.293 59.116 18.187 55.517 C 18.077 51.914 18.016 48.163 18.005 44.265 C 17.993 40.362 18.109 36.523 18.353 32.742 C 18.597 28.963 19.034 25.318 19.666 21.813 C 20.297 18.307 21.246 15.18 22.513 12.434 C 23.407 10.371 24.594 8.481 26.076 6.761 C 27.558 5.04 29.13 3.825 30.795 3.12 C 31.652 2.757 32.513 2.575 33.378 2.575 C 34.193 2.575 35.011 2.736 35.834 3.059 C 37.528 3.723 39.056 5.454 40.421 8.253 C 37.997 9.37 36.036 11.598 34.543 14.933 C 33.048 18.267 31.86 22.234 30.981 26.837 C 30.101 31.437 29.467 36.413 29.079 41.765 C 28.69 47.112 28.409 52.353 28.241 57.481 C 28.071 62.607 27.928 67.376 27.81 71.787 C 27.691 76.195 27.473 79.782 27.159 82.547 C 27.011 83.894 26.528 85.263 25.708 86.649 C 24.885 88.034 23.893 89.216 22.727 90.196 C 21.562 91.175 20.3 91.828 18.944 92.157 C 18.529 92.257 18.123 92.308 17.727 92.308 C 16.827 92.308 15.978 92.049 15.178 91.532 C 14.334 90.962 13.451 90.011 12.526 88.681 C 11.601 87.347 10.692 85.855 9.799 84.204 C 8.906 82.551 8.045 80.8 7.216 78.949 C 6.388 77.096 5.632 75.359 4.948 73.741 C 4.266 72.121 3.692 70.72 3.234 69.541 C 2.774 68.36 2.443 67.628 2.244 67.342 C 2.054 69.045 1.776 70.847 1.413 72.75 C 1.047 74.652 .461 76.391 -.347 77.965 C -.963 79.161 -1.794 80.161 -2.737 81.06 C -4.162 80.405 -5.666 79.824 -7.304 79.396 C -9.216 78.899 -11.123 78.648 -12.998 78.648 C -13.284 78.648 -13.57 78.654 -13.855 78.666 C -15.503 78.735 -17.096 79.072 -18.614 79.652 C -18.759 79.543 -18.907 79.462 -19.051 79.349 C -20.662 78.086 -22.205 76.625 -23.684 74.966 C -25.164 73.306 -26.527 71.573 -27.774 69.769 C -28.912 68.074 -30.122 65.932 -31.408 63.343 C -32.694 60.754 -33.947 57.897 -35.169 54.779 C -36.393 51.659 -37.543 48.38 -38.623 44.938 C -39.705 41.496 -40.613 38.147 -41.35 34.894 C -42.087 31.636 -42.58 28.536 -42.829 25.587 C -43.078 22.638 -43.032 20.079 -42.69 17.912 C -42.564 16.852 -42.317 15.756 -41.948 14.626 C -41.577 13.497 -41.109 12.4 -40.541 11.337 C -39.972 10.272 -39.294 9.319 -38.502 8.475 C -37.712 7.63 -36.809 7.006 -35.794 6.603 C -34.732 6.167 -33.798 5.949 -32.992 5.949 C -32.511 5.949 -32.076 6.027 -31.687 6.183 C -30.646 6.594 -29.868 7.309 -29.354 8.323 C -28.841 9.335 -28.547 10.461 -28.473 11.699 C -28.4 12.936 -28.438 14.007 -28.587 14.915 C -28.794 15.98 -29.015 16.513 -29.248 16.513 C -29.257 16.513 -29.266 16.512 -29.274 16.51 C -29.518 16.466 -29.72 15.903 -29.881 14.822 C -29.973 14.202 -30.181 13.382 -30.508 12.356 C -30.834 11.33 -31.353 10.774 -32.058 10.691 C -33.045 12.134 -33.563 14.225 -33.613 16.966 C -33.665 19.705 -33.432 22.76 -32.915 26.127 C -32.399 29.493 -31.65 32.992 -30.667 36.622 C -29.686 40.251 -28.625 43.702 -27.491 46.979 C -26.356 50.254 -25.267 53.164 -24.226 55.711 C -23.184 58.257 -22.315 60.157 -21.623 61.414 C -20.641 63.131 -19.605 64.794 -18.513 66.401 C -17.421 68.007 -16.351 69.404 -15.306 70.592 C -14.26 71.778 -13.256 72.642 -12.291 73.177 C -11.753 73.477 -11.252 73.626 -10.788 73.626 C -10.42 73.626 -10.076 73.532 -9.754 73.345 C -9.028 72.92 -8.499 71.917 -8.165 70.336 C -7.831 68.753 -7.707 66.405 -7.79 63.289 C -7.895 60.682 -8.091 58.136 -8.382 55.652 C -8.672 53.167 -8.92 51.341 -9.125 50.171 C -9.698 46.748 -10.321 43.035 -10.997 39.027 C -11.671 35.02 -12.303 30.991 -12.889 26.94 C -13.477 22.888 -13.964 18.979 -14.349 15.214 C -14.734 11.448 -14.947 8.162 -14.985 5.356 C -15.043 3.058 -14.686 .95 -13.911 -.965 C -13.138 -2.881 -12.063 -4.424 -10.69 -5.59 C -9.314 -6.759 -7.678 -7.437 -5.778 -7.624 C -5.518 -7.65 -5.254 -7.663 -4.986 -7.663 C -3.306 -7.663 -1.489 -7.154 .461 -6.136 C .839 -5.938 1.022 -5.715 1.012 -5.459 C 1.002 -5.205 .927 -4.863 .787 -4.43 C .646 -3.999 .477 -3.429 .282 -2.72 C .088 -2.012 -.008 -1.105 0 0 "/>
</g>
</g>
</g>
</svg>
